<svg xmlns="http://www.w3.org/2000/svg" viewBox="-1 -1 18 18" width="64" height="64">
  <title>Ignition Lint</title>
  <rect x="-1" y="-1" width="18" height="18" rx="3.5" fill="#2e8555"/>
  <path fill="#ffffff" d="M15.363 14.658a.5.5 0 1 1-.713.7l-2.97-3.023a.5.5 0 0 1 .001-.7A3.9 3.9 0 1 0 8.9 12.8a.5.5 0 1 1 0 .999a4.9 4.9 0 1 1 3.821-1.833zM3.094 13a.5.5 0 1 1 0 1H2.5A2.5 2.5 0 0 1 0 11.5v-9A2.5 2.5 0 0 1 2.5 0h9A2.5 2.5 0 0 1 14 2.5v.599a.5.5 0 1 1-1 0V2.5A1.5 1.5 0 0 0 11.5 1h-9A1.5 1.5 0 0 0 1 2.5v9A1.5 1.5 0 0 0 2.5 13zM2.5 3a.5.5 0 1 1 0-1a.5.5 0 0 1 0 1m2 0a.5.5 0 1 1 0-1a.5.5 0 0 1 0 1m2 0a.5.5 0 1 1 0-1a.5.5 0 0 1 0 1m-4 2a.5.5 0 1 1 0-1a.5.5 0 0 1 0 1m2 0a.5.5 0 1 1 0-1a.5.5 0 0 1 0 1m-2 1a.5.5 0 1 1 0 1a.5.5 0 0 1 0-1m0 3a.5.5 0 1 1 0-1a.5.5 0 0 1 0 1m6-6a.5.5 0 1 1 0-1a.5.5 0 0 1 0 1m2 0a.5.5 0 1 1 0-1a.5.5 0 0 1 0 1m-8 8a.5.5 0 1 1 0-1a.5.5 0 0 1 0 1"/>
</svg>
